<svg width="36" height="36" viewBox="0 0 36 36" fill="none" xmlns="http://www.w3.org/2000/svg">
<rect x="1.2" y="1.2" width="33.6" height="33.6" rx="16.8" stroke="#BDBEC0" stroke-width="1.6"/>
<path d="M15.6572 18.8215L12.5259 14.9074C12.331 14.6637 12.2335 14.5419 12.1642 14.4063C12.1027 14.2859 12.0578 14.1578 12.0306 14.0254C12 13.8762 12 13.7202 12 13.4081V12.9C12 12.0599 12 11.6399 12.1635 11.319C12.3073 11.0368 12.5368 10.8073 12.819 10.6635C13.1399 10.5 13.5599 10.5 14.4 10.5H21.6C22.4401 10.5 22.8601 10.5 23.181 10.6635C23.4632 10.8073 23.6927 11.0368 23.8365 11.319C24 11.6399 24 12.0599 24 12.9V13.4081C24 13.7202 24 13.8762 23.9694 14.0254C23.9422 14.1578 23.8973 14.2859 23.8358 14.4063C23.7665 14.5419 23.669 14.6637 23.4741 14.9074L20.3428 18.8215M12.75 11.25L18 18L23.25 11.25M20.6517 19.0983C22.1161 20.5628 22.1161 22.9372 20.6517 24.4017C19.1872 25.8661 16.8128 25.8661 15.3483 24.4017C13.8839 22.9372 13.8839 20.5628 15.3483 19.0983C16.8128 17.6339 19.1872 17.6339 20.6517 19.0983Z" stroke="#BDBEC0" stroke-width="1.3" stroke-linecap="round" stroke-linejoin="round"/>
</svg>
